<svg width="250" height="54" viewBox="0 0 250 54" fill="none" xmlns="http://www.w3.org/2000/svg">
<g clip-path="url(#clip0_1759_6555)">
<path d="M51.0599 35.7555C48.5663 31.7974 45.1505 28.4984 41.1027 26.1337V25.1552C41.1095 19.5969 39.4972 14.1541 36.4571 9.48932C32.809 3.97176 25.3521 2.43949 19.8048 6.07142C18.4384 6.96497 17.2668 8.13031 16.3684 9.48932C13.3351 14.1575 11.7263 19.6003 11.7331 25.1552V26.1439C7.69214 28.5086 4.28653 31.8042 1.79637 35.7555C-1.69464 41.3749 0.0576931 48.7441 5.70753 52.2164C7.57942 53.3647 9.73141 53.9831 11.9278 54.0001H12.0815C17.1063 54.0001 22.0422 52.7022 26.4111 50.239C30.7902 52.709 35.7398 54.0069 40.7748 54.0001H40.9387C47.5791 53.9423 52.9147 48.5369 52.8532 41.9321C52.8327 39.7475 52.2145 37.6139 51.0599 35.7555ZM37.7688 28.5256L37.7039 28.9706V29.2526L37.6048 29.7521V29.9899C37.6048 30.2277 37.5058 30.4689 37.4511 30.7068V30.8359C37.4511 31.0329 37.3623 31.2266 37.3077 31.4236L37.2428 31.6852C37.2428 31.8381 37.1676 31.991 37.1232 32.1405C37.0788 32.29 37.0583 32.3376 37.0344 32.4225L36.9046 32.8472L36.8055 33.1394L36.6757 33.5403L36.5664 33.8461C36.5118 33.9752 36.4674 34.1077 36.4229 34.2266C36.3785 34.3455 36.3341 34.4338 36.3034 34.5425C36.2726 34.6513 36.2043 34.794 36.1497 34.9129L36.0199 35.2187L35.8559 35.5992L35.7261 35.8914L35.5417 36.2617C35.5417 36.3602 35.4528 36.4587 35.3982 36.5539C35.3435 36.649 35.2786 36.8053 35.2137 36.9344L35.0703 37.2062L34.8517 37.5969L34.7082 37.8483L34.4349 38.3172L34.3359 38.4803C34.2163 38.6875 34.0831 38.8948 33.9533 39.0986C33.9055 39.1564 33.8679 39.2175 33.8337 39.2821L33.54 39.7068L33.376 39.9446L33.113 40.3047C33.113 40.3931 32.9934 40.4678 32.9285 40.5561L32.6757 40.8925L32.4674 41.1439C32.3786 41.2526 32.3034 41.3613 32.2044 41.4701L31.996 41.7215L31.733 42.0273C31.6578 42.1156 31.5895 42.2005 31.5144 42.2787L31.2308 42.5844L31.0122 42.8223L30.7185 43.1281L30.4998 43.3557L30.1924 43.6479L29.9636 43.8653L29.6356 44.1711L29.417 44.3681L29.0447 44.6943L28.8466 44.8574L28.2898 45.3126L27.6886 45.7679L27.5041 45.9106L27.0874 46.2028L26.8483 46.3659L26.5409 46.5731L26.2471 46.3659L26.008 46.2028L25.417 45.9106L25.2326 45.7815C24.8398 45.4893 24.4469 45.1734 24.0644 44.8574L23.9004 44.7045C23.7604 44.5992 23.6305 44.4871 23.5076 44.3681L23.2992 44.1847L22.9508 43.8687L22.7424 43.6615L22.4247 43.3557L22.2061 43.1281L21.8987 42.8223L21.6903 42.5946C21.5913 42.4859 21.4922 42.3874 21.4068 42.2787L21.1882 42.0408L20.9149 41.7147L20.7066 41.4769L20.4435 41.1507L20.2454 40.8993L19.9824 40.5527C19.9824 40.478 19.8629 40.3999 19.8082 40.3149C19.7535 40.23 19.6237 40.0771 19.5349 39.9446C19.4461 39.8121 19.4256 39.7917 19.3812 39.717C19.2753 39.5777 19.1763 39.4316 19.0875 39.2821L18.9679 39.1088C18.8381 38.9016 18.7049 38.6943 18.5853 38.4905L18.4863 38.3274L18.2027 37.8585L18.0729 37.6071L17.8543 37.2164L17.7655 36.9446L17.5674 36.5641C17.5674 36.4757 17.4786 36.367 17.4239 36.2719L17.2497 35.9117L17.1063 35.6297L16.9423 35.2594L16.8125 34.9536L16.669 34.5392C16.669 34.4406 16.5939 34.3319 16.5495 34.2334C16.5051 34.1348 16.4504 33.982 16.406 33.8529C16.3616 33.7237 16.3309 33.6456 16.2967 33.5369L16.1669 33.1564L16.0678 32.8404L15.938 32.4395C15.938 32.341 15.8834 32.2322 15.8492 32.1337C15.8151 32.0352 15.7741 31.8415 15.7297 31.6988C15.7092 31.6071 15.6853 31.5154 15.6545 31.427L15.5247 30.863V30.7102C15.4701 30.4723 15.4154 30.2311 15.371 29.9831V29.7453C15.371 29.6705 15.3163 29.4191 15.2822 29.256C15.248 29.0929 15.2822 29.059 15.2822 28.9638L15.2173 28.5188V27.9106L15.5008 27.7679L15.8185 27.615L16.2215 27.4418L16.529 27.3126L17.0004 27.1156L17.2395 27.0171L17.95 26.7555L18.213 26.6671L18.6844 26.5142L18.9918 26.4157L19.4188 26.2866L19.7467 26.1983L20.1737 26.0794L20.5016 26.0046L20.9184 25.9061L21.0482 25.8415L21.4751 25.7532L21.8133 25.6886L22.2403 25.6241L22.5785 25.5697L23.0054 25.5052H29.8577L30.2949 25.5697L30.6228 25.6241L31.06 25.6886L31.388 25.7532L31.8252 25.8415L32.1429 25.9163L32.5801 26.0148L32.8978 26.0895L33.3453 26.2085L33.639 26.2968L34.1104 26.4395L34.3837 26.5142L34.92 26.6977L35.1044 26.7623C35.3572 26.837 35.5963 26.9355 35.8354 27.0239L35.9789 27.0884C36.1736 27.153 36.3615 27.2311 36.5459 27.316L36.7987 27.4248L37.2462 27.6218L37.5297 27.7509L37.8371 27.9038V28.2096L37.7722 28.5256H37.7688ZM19.0021 11.1303C21.6733 7.04991 27.166 5.89815 31.2684 8.555C32.3034 9.22431 33.1847 10.1009 33.8576 11.1303C36.4605 15.1394 37.8918 19.7872 37.9908 24.5573H37.8815L37.6287 24.4485L37.1027 24.2413L36.8294 24.1326L36.3478 23.8948L36.0848 23.7962L35.4836 23.5992L35.2547 23.5346L34.4554 23.2968L34.271 23.2424L33.6595 23.0794L33.376 23.0148L32.8397 22.8959L32.5459 22.8211L31.9994 22.7124L31.7261 22.6581L31.0361 22.5493L30.8824 22.5833L30.0626 22.4644H29.8235C29.6288 22.4304 29.4307 22.41 29.2326 22.3999H23.6032C23.4051 22.41 23.207 22.4338 23.0123 22.4644H22.7732L21.9534 22.5833H21.8236L21.1336 22.7022H20.85L20.3137 22.8211L20.0063 22.8857L19.47 23.0046L19.1865 23.0794C18.985 23.1235 18.7834 23.1779 18.5853 23.2424L18.3872 23.2968L17.5879 23.5244L17.4034 23.589L16.8022 23.7962L16.529 23.8948L16.0166 24.0782L15.7331 24.1869L15.2207 24.3942L14.9577 24.5029H14.8586C14.9679 19.7532 16.4026 15.1258 19.0021 11.1405V11.1303ZM12.0815 50.8472H11.9381C7.0363 50.8166 3.08756 46.8415 3.1183 41.9627C3.12855 40.3353 3.58969 38.7453 4.45049 37.3625C6.41119 34.2402 9.02091 31.5731 12.102 29.5346V29.8404L12.2011 30.3942C12.2079 30.4893 12.2079 30.5811 12.2011 30.6762C12.2011 30.8393 12.2762 31.0125 12.3104 31.1858L12.3753 31.4576L12.5051 32.0216C12.5051 32.0861 12.5051 32.1643 12.5597 32.2288C12.6246 32.4905 12.6895 32.7385 12.7681 33.0001V33.119L12.9662 33.7509C12.9662 33.8393 13.0209 33.914 13.0414 34.0023C13.0619 34.0907 13.1609 34.3387 13.2156 34.512L13.3146 34.7736C13.3693 34.9468 13.4342 35.1201 13.4991 35.2832C13.564 35.4463 13.5538 35.4463 13.5879 35.521L13.8612 36.1835V36.2481L14.1789 36.965L14.2779 37.1722C14.3531 37.3455 14.4419 37.5086 14.517 37.6818L14.6366 37.9197C14.7254 38.0828 14.8005 38.2458 14.8894 38.3987L15.0089 38.6365L15.2924 39.1598L15.3915 39.333C15.5213 39.5607 15.6545 39.7883 15.7946 40.0057C15.8151 40.0499 15.839 40.0907 15.8697 40.1247C15.979 40.3081 16.0883 40.495 16.2079 40.6784L16.3513 40.8959L16.6588 41.341L16.8125 41.5686L17.1302 42.0035L17.2839 42.2107C17.4273 42.4078 17.5674 42.6014 17.7211 42.7883L18.2232 43.3965C18.2676 43.461 18.3189 43.5188 18.377 43.5697L18.739 44.0046L18.9235 44.2119L19.2856 44.6026L19.47 44.7996C19.5998 44.9525 19.7433 45.0918 19.8868 45.2345L20.0166 45.3772L20.5836 45.931L20.7032 46.0397L21.1745 46.4644L21.3727 46.6479L21.7894 46.9944L21.9978 47.1779L22.435 47.5244L22.6331 47.6773C22.8415 47.8506 23.0499 48.0035 23.2685 48.1666C19.7877 49.8755 15.9654 50.786 12.0849 50.8302L12.0815 50.8472ZM48.6551 46.2606C47.1283 49.0907 44.1565 50.8574 40.9285 50.8472H40.7748C36.8363 50.8472 32.949 49.9604 29.4068 48.2481L30.0421 47.7589L30.2266 47.6162L30.6638 47.256L30.8824 47.0726L31.2992 46.7124L31.4836 46.5493L31.9652 46.1043L32.0746 46.0057L32.6553 45.4418L32.7748 45.3228L33.2018 44.8778L33.376 44.6807C33.5058 44.5516 33.6288 44.4191 33.7483 44.2798L33.9225 44.0827C34.0523 43.9299 34.1856 43.7906 34.3051 43.6377L34.4486 43.4746L34.9507 42.8563L35.4084 42.2379C35.4631 42.1801 35.5109 42.119 35.5519 42.0544L35.8798 41.5992L36.0335 41.3817C36.1326 41.2288 36.2419 41.076 36.341 40.9129L36.4708 40.7158C36.6006 40.5188 36.7235 40.3353 36.8328 40.1382L36.8978 40.0397L37.3008 39.3534L37.3896 39.2005L37.6834 38.6569L37.803 38.4395L38.0557 37.9401L38.165 37.7124C38.2538 37.5392 38.3392 37.3659 38.4178 37.179C38.452 37.1213 38.4827 37.0601 38.5066 36.9955L38.8345 36.2685L39.1181 35.5822C39.1181 35.5074 39.1181 35.4293 39.1932 35.3545C39.2684 35.1847 39.3333 35.0114 39.3913 34.8313C39.4255 34.7498 39.4562 34.6649 39.4801 34.5799L39.6646 34.0567C39.6851 33.9752 39.709 33.8936 39.7397 33.8189L39.9379 33.1666V33.0578C40.0028 32.8064 40.0813 32.5482 40.1462 32.2866V32.0895C40.1462 32.025 40.2453 31.709 40.2897 31.512C40.2965 31.4236 40.2965 31.3387 40.2897 31.2504C40.2897 31.0771 40.3648 30.9038 40.399 30.717C40.4058 30.6252 40.4058 30.5369 40.399 30.4452C40.522 30.2583 40.6313 30.0612 40.7269 29.8574C40.7338 29.786 40.7338 29.7113 40.7269 29.6399V29.5652C43.8046 31.6071 46.4143 34.2741 48.3785 37.3931C50.1103 40.0839 50.2196 43.5018 48.662 46.2979V46.2538L48.6551 46.2606Z" fill="url(#paint0_linear_1759_6555)"/>
<path d="M73.3479 29.0385C73.3479 38.7044 77.1395 42.6727 86.3555 42.6727C89.1018 42.6455 91.8413 42.3839 94.5433 41.8913C97.6927 41.4021 99.5168 42.7713 99.5168 45.914V47.5889C99.7559 50.0046 98.0753 52.1891 95.6705 52.5901C91.896 53.5142 88.0258 53.9864 84.1386 54.0034C69.6007 54.0034 59.4453 45.8596 59.4453 28.9978C59.4453 12.1359 69.6007 4.09741 84.1386 4.09741C88.0258 4.1178 91.896 4.59685 95.6705 5.52097C98.2836 6.10874 99.5168 7.86865 99.5168 10.5221V12.1869C99.5168 15.3194 97.3306 16.6002 93.6586 16.0125C91.2436 15.6286 88.8012 15.4145 86.3555 15.3703C77.1395 15.316 73.3479 19.3828 73.3479 29.0385Z" fill="white"/>
<path d="M133.241 8.94572V11.7826C133.241 14.6739 131.513 16.2945 128.267 16.3489C117.917 16.4916 117.466 17.3715 117.466 21.0578V48.6082C117.466 51.4995 115.847 53.1099 112.94 53.1099H108.056C105.149 53.1099 103.52 51.4995 103.52 48.6082V19.0907C103.52 7.8721 107.564 4.82454 128.411 4.48819C131.571 4.43382 133.241 6.00008 133.241 8.94572Z" fill="white"/>
<path d="M176.443 4.92285H181.079C183.986 4.92285 185.615 6.54346 185.615 9.43474V31.2773C185.615 48.8798 176.686 53.9795 161.359 53.9795C146.032 53.9795 137.113 48.9036 137.113 31.2773V9.43474C137.113 6.54346 138.743 4.92285 141.65 4.92285H146.275C149.182 4.92285 150.811 6.54346 150.811 9.43474V31.4948C150.811 40.1278 153.971 42.5197 161.359 42.5197C168.748 42.5197 171.897 40.1278 171.897 31.4948V9.43474C171.897 6.54346 173.537 4.92285 176.443 4.92285Z" fill="white"/>
<path d="M234.11 53.1097H227.89C225.916 53.2253 224.054 52.1958 223.115 50.4665L213.899 36.5401L204.683 50.4665C203.757 52.189 201.909 53.2219 199.948 53.1097H193.752C190.473 53.1097 189.315 51.1086 191.139 48.3159L204.444 29.0384L191.128 9.73035C189.304 6.9376 190.483 4.92627 193.742 4.92627H199.952C201.912 4.81755 203.76 5.85379 204.686 7.57973L213.902 21.5503L223.118 7.57973C224.061 5.85039 225.919 4.81755 227.893 4.92627H234.114C237.393 4.92627 238.541 6.9376 236.717 9.73035L223.371 29.0384L236.717 48.3159C238.575 51.1086 237.362 53.1097 234.114 53.1097H234.11Z" fill="white"/>
<path d="M243.996 0V0.703284H242.332V5.5957H241.594V0.703284H239.938V0H243.996Z" fill="white"/>
<path d="M249.998 0V5.5957H249.26V1.2231L247.419 4.26727H247.327L245.482 1.21971V5.5957H244.734V0H245.578L247.378 2.96942L249.165 0H249.998Z" fill="white"/>
</g>
<defs>
<linearGradient id="paint0_linear_1759_6555" x1="-0.000376166" y1="29.0488" x2="52.9284" y2="29.0488" gradientUnits="userSpaceOnUse">
<stop stop-color="#EBA16B"/>
<stop offset="1" stop-color="#DE5C58"/>
</linearGradient>
<clipPath id="clip0_1759_6555">
<rect width="250" height="54" fill="white"/>
</clipPath>
</defs>
</svg>
